<svg width="559" height="365" viewBox="0 0 559 365" fill="none" xmlns="http://www.w3.org/2000/svg">
<path d="M559 0V365H0V0H559Z" fill="#FEFEFE"/>
<path d="M559 0V365H149.077C154.196 358.915 160.83 352.663 169.156 346.272C195.788 325.763 228.236 317.366 255.223 298.152C277.009 282.64 291.942 257.466 295.3 230.579C298.262 206.978 292.72 183.238 291.164 159.498C289.622 135.758 293.157 109.539 310.166 93.2759C341.726 63.089 396.696 84.9216 433.989 62.5599C449.496 53.2588 460.389 36.383 462.669 18.1985C463.419 12.1694 463.283 6.09865 462.791 0H559Z" fill="#D55593"/>
<path d="M103.361 38.5134C103.361 71.9028 76.8248 98.9708 44.091 98.9708C26.5774 98.9708 10.8385 91.2291 0 78.9065V0H89.7791C98.2696 10.4568 103.361 23.8794 103.361 38.5134Z" fill="#ED6CA6"/>
<path d="M81.2748 3.98222C81.2748 10.4568 76.1286 15.6922 69.7811 15.6922C63.4473 15.6922 58.3011 10.4568 58.3011 3.98222C58.3011 2.58984 58.5331 1.23922 58.9836 0H80.5923C81.0427 1.23922 81.2748 2.58984 81.2748 3.98222Z" fill="#D55593"/>
<path d="M59.7193 71.215C59.7193 77.6841 54.5772 82.9292 48.2352 82.9292C41.8918 82.9292 36.7497 77.6841 36.7497 71.215C36.7497 64.7446 41.8918 59.4995 48.2352 59.4995C54.5772 59.4995 59.7193 64.7446 59.7193 71.215Z" fill="#D55593"/>
<path d="M12.2445 50.488C12.2445 54.7208 8.87279 58.16 4.7094 58.16C2.92119 58.16 1.28314 57.5195 0 56.4752V44.5007C1.28314 43.4425 2.92119 42.802 4.7094 42.802C8.87279 42.802 12.2445 46.2412 12.2445 50.488Z" fill="#D55593"/>
<path d="M44.3367 0C43.4767 1.39239 41.9478 2.31135 40.2279 2.31135C38.4943 2.31135 36.9791 1.39239 36.1191 0H44.3367Z" fill="#D55593"/>
<path d="M22.0127 15.6951C22.0127 18.4311 19.8382 20.6492 17.1559 20.6492C14.4722 20.6492 12.2991 18.4311 12.2991 15.6951C12.2991 12.959 14.4722 10.741 17.1559 10.741C19.8382 10.741 22.0127 12.959 22.0127 15.6951Z" fill="#D55593"/>
<path d="M87.2278 52.8035C87.2278 55.5395 85.0533 57.7576 82.371 57.7576C79.6887 57.7576 77.5142 55.5395 77.5142 52.8035C77.5142 50.0674 79.6887 47.8494 82.371 47.8494C85.0533 47.8494 87.2278 50.0674 87.2278 52.8035Z" fill="#D55593"/>
<path d="M559 80.7026V365H314.588C344.155 346.551 368.849 319.998 385.243 288.822C409.991 241.76 416.667 184.143 452.13 144.836C480.332 113.633 521.679 99.6948 559 80.7026Z" fill="#ED6CA6"/>
<path d="M559 275.372V365H421.226C432.788 314.791 486.134 283.183 533.064 276.068C541.486 274.787 550.441 274.314 559 275.372Z" fill="#D55593"/>
<path d="M502.514 342.762C499.857 342.762 497.315 343.244 494.959 344.132C493.113 320.627 473.848 302.131 450.323 302.131C442.678 302.131 435.476 304.09 429.175 307.539L425.608 267.182H394.969L391.775 303.345C389.386 302.432 386.801 301.928 384.098 301.928C372.061 301.928 362.295 311.882 362.295 324.167C362.295 325.696 362.45 327.184 362.731 328.627C349.067 330.371 337.318 338.392 330.344 349.783C326.362 345.458 320.72 342.762 314.453 342.762C302.408 342.762 292.644 352.715 292.644 365H524.322C524.322 352.715 514.557 342.762 502.514 342.762Z" fill="#FEFEFE"/>
<path d="M502.513 346.679C500.371 346.679 498.277 347.061 496.291 347.81L491.534 349.603L491.128 344.446C490.311 334.012 485.704 324.334 478.156 317.188C470.569 310.005 460.685 306.049 450.323 306.049C443.582 306.049 436.898 307.758 430.991 310.991L425.87 313.795L421.751 267.182H398.827L395.148 308.824L390.425 307.014C388.402 306.24 386.272 305.847 384.098 305.847C374.193 305.847 366.137 314.065 366.137 324.167C366.137 325.392 366.259 326.636 366.5 327.861L367.305 331.993L363.207 332.516C350.961 334.079 340.171 341.129 333.602 351.857L330.961 356.174L327.544 352.464C324.108 348.734 319.459 346.679 314.453 346.679C305.864 346.679 298.451 356.775 296.686 365H520.067C518.302 356.775 511.102 346.679 502.513 346.679Z" fill="#F3EDD8"/>
<path d="M500.913 365C496.123 357.208 487.627 352.029 477.945 352.029C477.677 352.029 477.408 352.042 477.138 352.049C477.664 349.901 477.945 347.652 477.945 345.334C477.945 330.064 465.811 317.688 450.836 317.688C436.038 317.688 424.02 329.784 423.744 344.812L418.979 267.182H402.164L398.001 322.573C397.637 322.55 397.272 322.534 396.904 322.534C387.273 322.534 379.462 330.502 379.462 340.333C379.462 343.472 380.262 346.419 381.659 348.978C377.746 346.666 373.199 345.334 368.352 345.334C363.605 345.334 359.152 346.608 355.293 348.833C353.791 346.937 351.495 345.721 348.921 345.721C344.398 345.721 340.733 349.458 340.733 354.073C340.733 356.923 342.135 359.436 344.271 360.943C343.674 362.243 343.173 363.598 342.779 365H500.913Z" fill="#FEFEFE"/>
<path d="M463.264 354.288C463.264 358.56 461.42 362.393 458.493 365H440.104C437.178 362.393 435.334 358.56 435.334 354.288C435.334 346.419 441.59 340.044 449.299 340.044C457.008 340.044 463.264 346.419 463.264 354.288Z" fill="#F3EDD8"/>
<path d="M405.334 350.618C405.334 354.014 402.634 356.767 399.306 356.767C395.975 356.767 393.278 354.014 393.278 350.618C393.278 347.223 395.975 344.469 399.306 344.469C402.634 344.469 405.334 347.223 405.334 350.618Z" fill="#F3EDD8"/>
<path d="M399.306 334.558C399.306 336.257 397.954 337.633 396.292 337.633C394.626 337.633 393.278 336.257 393.278 334.558C393.278 332.86 394.626 331.484 396.292 331.484C397.954 331.484 399.306 332.86 399.306 334.558Z" fill="#F3EDD8"/>
<path d="M453.25 329.658C453.25 331.357 451.901 332.733 450.236 332.733C448.572 332.733 447.222 331.357 447.222 329.658C447.222 327.962 448.572 326.584 450.236 326.584C451.901 326.584 453.25 327.962 453.25 329.658Z" fill="#F3EDD8"/>
<path d="M368.57 358.005C368.57 359.703 367.222 361.079 365.556 361.079C363.891 361.079 362.542 359.703 362.542 358.005C362.542 356.307 363.891 354.93 365.556 354.93C367.222 354.93 368.57 356.307 368.57 358.005Z" fill="#F3EDD8"/>
<path d="M385.969 318.487C385.969 321.418 383.639 323.795 380.767 323.795C377.894 323.795 375.564 321.418 375.564 318.487C375.564 315.558 377.894 313.181 380.767 313.181C383.639 313.181 385.969 315.558 385.969 318.487Z" fill="#FEFEFE"/>
<path d="M320.189 362.088C320.189 363.145 319.92 364.138 319.447 365H309.222C308.747 364.138 308.479 363.145 308.479 362.088C308.479 358.789 311.098 356.111 314.33 356.111C317.571 356.111 320.189 358.789 320.189 362.088Z" fill="#FEFEFE"/>
<path d="M368.352 174.784V264.232H340.733V174.784C340.733 167.007 346.914 160.697 354.542 160.697C358.357 160.697 361.804 162.276 364.305 164.825C366.804 167.37 368.352 170.897 368.352 174.784Z" fill="#FEFEFE"/>
<path d="M477.945 174.784V264.232H450.326V174.784C450.326 167.007 456.512 160.697 464.136 160.697C467.95 160.697 471.402 162.276 473.903 164.825C476.397 167.37 477.945 170.897 477.945 174.784Z" fill="#FEFEFE"/>
<path d="M384.101 193.83V255.124H318.065V233.532L384.101 193.83Z" fill="#34BDB8"/>
<path d="M384.101 221.288V255.124H318.065C318.065 255.124 340.318 226.275 384.101 221.288Z" fill="#28A6A1"/>
<path d="M436.48 193.83V255.124H502.516V233.532L436.48 193.83Z" fill="#34BDB8"/>
<path d="M436.48 221.288V255.124H502.516C502.516 255.124 480.263 226.275 436.48 221.288Z" fill="#28A6A1"/>
<path d="M437.911 152.294V255.124H380.767V150.49C380.767 127.185 389.348 104.73 404.815 87.5727L406.011 86.2513C406.905 85.2557 408.12 84.7559 409.339 84.7559C410.558 84.7559 411.773 85.2557 412.668 86.2513C428.902 104.259 437.911 127.831 437.911 152.294Z" fill="#F3EDD8"/>
<path d="M409.339 84.7559V255.124H380.767V150.49C380.767 127.185 389.348 104.73 404.815 87.5727L406.011 86.2513C406.905 85.2557 408.12 84.7559 409.339 84.7559Z" fill="#FEFEFE"/>
<path d="M437.911 255.124H380.767V248.401H437.911V255.124Z" fill="#ED6DA8"/>
<path d="M428.381 273.336H390.297L380.767 255.124H437.911L428.381 273.336Z" fill="#2E2E30"/>
<path d="M413.466 219.948V288.277H405.212V219.948C405.212 217.627 407.059 215.742 409.336 215.742C410.475 215.742 411.508 216.212 412.256 216.975C413.004 217.738 413.466 218.788 413.466 219.948Z" fill="#28A6A1"/>
<path d="M413.466 219.948V288.277H409.336V215.742C410.475 215.742 411.508 216.212 412.256 216.975C413.004 217.738 413.466 218.788 413.466 219.948Z" fill="#34BDB8"/>
<path d="M368.352 264.232L363.587 273.334H345.497L340.733 264.232H368.352Z" fill="#2E2E30"/>
<path d="M477.945 264.232L473.181 273.334H455.091L450.326 264.232H477.945Z" fill="#2E2E30"/>
<path d="M368.352 180.214V187.738H340.733V180.214H368.352Z" fill="#F3EDD8"/>
<path d="M477.945 180.214V187.738H450.326V180.214H477.945Z" fill="#F3EDD8"/>
<path d="M421.268 156.925C421.268 163.047 416.4 168.011 410.398 168.011C404.395 168.011 399.53 163.047 399.53 156.925C399.53 150.801 404.395 145.837 410.398 145.837C416.4 145.837 421.268 150.801 421.268 156.925Z" fill="#ED6DA8"/>
<path d="M418.096 156.925C418.096 161.262 414.65 164.776 410.398 164.776C406.146 164.776 402.699 161.262 402.699 156.925C402.699 152.587 406.146 149.072 410.398 149.072C414.65 149.072 418.096 152.587 418.096 156.925Z" fill="#2E2E30"/>
<path d="M426.496 130.497H421.491C421.491 123.659 416.047 118.108 409.335 118.108C402.63 118.108 397.189 123.659 397.189 130.497H392.182C392.182 120.837 399.864 113.002 409.335 113.002C418.814 113.002 426.496 120.837 426.496 130.497Z" fill="#2E2E30"/>
<path d="M421.268 190.946C421.268 197.071 416.4 202.034 410.398 202.034C404.395 202.034 399.53 197.071 399.53 190.946C399.53 184.824 404.395 179.86 410.398 179.86C416.4 179.86 421.268 184.824 421.268 190.946Z" fill="#ED6DA8"/>
<path d="M418.096 190.946C418.096 195.285 414.65 198.801 410.398 198.801C406.146 198.801 402.699 195.285 402.699 190.946C402.699 186.61 406.146 183.094 410.398 183.094C414.65 183.094 418.096 186.61 418.096 190.946Z" fill="#2E2E30"/>
<path d="M244.298 274.789C244.298 280.641 239.647 285.385 233.912 285.385C228.174 285.385 223.524 280.641 223.524 274.789C223.524 268.938 228.174 264.195 233.912 264.195C239.647 264.195 244.298 268.938 244.298 274.789Z" fill="#D55593"/>
<path d="M265.683 250.298C265.683 254.152 262.62 257.277 258.841 257.277C255.063 257.277 252.001 254.152 252.001 250.298C252.001 246.445 255.063 243.321 258.841 243.321C262.62 243.321 265.683 246.445 265.683 250.298Z" fill="#D55593"/>
<path d="M28.853 121.75C28.853 125.604 25.7898 128.727 22.0128 128.727C18.2343 128.727 15.1711 125.604 15.1711 121.75C15.1711 117.896 18.2343 114.771 22.0128 114.771C25.7898 114.771 28.853 117.896 28.853 121.75Z" fill="#D55593"/>
<path d="M293.634 72.0714C293.634 75.9241 290.569 79.05 286.792 79.05C283.014 79.05 279.95 75.9241 279.95 72.0714C279.95 68.2173 283.014 65.0928 286.792 65.0928C290.569 65.0928 293.634 68.2173 293.634 72.0714Z" fill="#ED6CA6"/>
<path d="M318.043 73.7241C318.043 76.3697 315.941 78.5139 313.348 78.5139C310.755 78.5139 308.653 76.3697 308.653 73.7241C308.653 71.08 310.755 68.9343 313.348 68.9343C315.941 68.9343 318.043 71.08 318.043 73.7241Z" fill="#ED6CA6"/>
<path d="M409.908 56.4598C409.908 59.1053 407.806 61.251 405.212 61.251C402.619 61.251 400.517 59.1053 400.517 56.4598C400.517 53.8157 402.619 51.6714 405.212 51.6714C407.806 51.6714 409.908 53.8157 409.908 56.4598Z" fill="#ED6CA6"/>
<path d="M484.786 80.7027C484.786 84.5569 481.725 87.6814 477.945 87.6814C474.168 87.6814 471.103 84.5569 471.103 80.7027C471.103 76.8486 474.168 73.7241 477.945 73.7241C481.725 73.7241 484.786 76.8486 484.786 80.7027Z" fill="#ED6CA6"/>
<path d="M531.162 202.99C531.162 206.843 528.101 209.968 524.322 209.968C520.544 209.968 517.481 206.843 517.481 202.99C517.481 199.135 520.544 196.012 524.322 196.012C528.101 196.012 531.162 199.135 531.162 202.99Z" fill="#D55593"/>
<path d="M537.058 309.114C537.058 312.967 533.996 316.091 530.216 316.091C526.438 316.091 523.375 312.967 523.375 309.114C523.375 305.258 526.438 302.135 530.216 302.135C533.996 302.135 537.058 305.258 537.058 309.114Z" fill="#ED6CA6"/>
<path d="M238.746 344.469C238.746 348.323 235.683 351.448 231.905 351.448C228.126 351.448 225.065 348.323 225.065 344.469C225.065 340.617 228.126 337.491 231.905 337.491C235.683 337.491 238.746 340.617 238.746 344.469Z" fill="#ED6CA6"/>
<path d="M121.839 341.769C121.839 345.622 118.775 348.747 114.997 348.747C111.219 348.747 108.157 345.622 108.157 341.769C108.157 337.915 111.219 334.791 114.997 334.791C118.775 334.791 121.839 337.915 121.839 341.769Z" fill="#ED6CA6"/>
<path d="M540.368 234.83C540.368 240.548 535.823 245.185 530.216 245.185C524.612 245.185 520.067 240.548 520.067 234.83C520.067 229.113 524.612 224.476 530.216 224.476C535.823 224.476 540.368 229.113 540.368 234.83Z" fill="#D55593"/>
<path d="M341.943 121.75C341.943 125.604 338.88 128.727 335.102 128.727C331.324 128.727 328.261 125.604 328.261 121.75C328.261 117.896 331.324 114.771 335.102 114.771C338.88 114.771 341.943 117.896 341.943 121.75Z" fill="#ED6CA6"/>
<path d="M514.211 61.5727C518.66 66.1105 518.66 73.4651 514.211 78.0015C509.765 82.5378 502.554 82.5378 498.107 78.0015C493.659 73.4651 493.659 66.1105 498.107 61.5727C502.554 57.0363 509.765 57.0363 514.211 61.5727Z" fill="#ED6CA6"/>
<path d="M328.242 295.521C332.69 300.058 332.69 307.412 328.242 311.95C323.794 316.487 316.584 316.487 312.135 311.95C307.689 307.412 307.689 300.058 312.135 295.521C316.584 290.984 323.794 290.984 328.242 295.521Z" fill="#ED6CA6"/>
<path d="M328.242 295.521C332.69 300.058 332.69 307.412 328.242 311.95C323.794 316.487 316.584 316.487 312.135 311.95C307.689 307.412 307.689 300.058 312.135 295.521C316.584 290.984 323.794 290.984 328.242 295.521Z" fill="#ED6CA6"/>
<path d="M490.819 129.236L490.113 126.696L489.407 129.236C488.812 131.376 487.399 133.182 485.487 134.25C487.399 135.316 488.812 137.124 489.407 139.264L490.113 141.802L490.819 139.264C491.414 137.124 492.825 135.316 494.74 134.25C492.825 133.182 491.414 131.376 490.819 129.236Z" fill="#FEFEFE"/>
<path d="M341.437 138.453L340.733 135.915L340.026 138.453C339.431 140.593 338.018 142.401 336.106 143.467C338.018 144.535 339.431 146.341 340.026 148.481L340.733 151.021L341.437 148.481C342.034 146.341 343.445 144.535 345.359 143.467C343.445 142.401 342.034 140.593 341.437 138.453Z" fill="#FEFEFE"/>
<path d="M531.87 329.543L531.163 327.005L530.458 329.543C529.862 331.684 528.45 333.49 526.536 334.558C528.45 335.626 529.862 337.432 530.458 339.572L531.163 342.111L531.87 339.572C532.465 337.432 533.878 335.626 535.79 334.558C533.878 333.49 532.465 331.684 531.87 329.543Z" fill="#FEFEFE"/>
<path d="M270.69 324.646L269.983 322.108L269.277 324.646C268.682 326.786 267.271 328.592 265.357 329.658C267.271 330.726 268.682 332.534 269.277 334.674L269.983 337.212L270.69 334.674C271.284 332.534 272.697 330.726 274.61 329.658C272.697 328.592 271.284 326.786 270.69 324.646Z" fill="#FEFEFE"/>
<path d="M311.558 269.776L310.852 267.236L310.145 269.776C309.551 271.916 308.139 273.722 306.225 274.789C308.139 275.857 309.551 277.664 310.145 279.804L310.852 282.342L311.558 279.804C312.153 277.664 313.566 275.857 315.48 274.789C313.566 273.722 312.153 271.916 311.558 269.776Z" fill="#FEFEFE"/>
<path d="M442.127 86.4851L441.42 83.9468L440.716 86.4851C440.121 88.6252 438.708 90.4311 436.794 91.4991C438.708 92.567 440.121 94.373 440.716 96.513L441.42 99.0514L442.127 96.513C442.721 94.373 444.135 92.567 446.048 91.4991C444.135 90.4311 442.721 88.6252 442.127 86.4851Z" fill="#FEFEFE"/>
<path d="M515.245 118.184L514.742 116.377L514.241 118.184C513.817 119.705 512.814 120.991 511.453 121.75C512.814 122.509 513.817 123.794 514.241 125.316L514.742 127.122L515.245 125.316C515.668 123.794 516.673 122.509 518.033 121.75C516.673 120.991 515.668 119.705 515.245 118.184Z" fill="#FEFEFE"/>
<path d="M358.965 53.2505L358.462 51.4446L357.96 53.2505C357.537 54.7738 356.532 56.0575 355.171 56.8178C356.532 57.5766 357.537 58.8618 357.96 60.3837L358.462 62.1896L358.965 60.3837C359.388 58.8618 360.393 57.5766 361.753 56.8178C360.393 56.0575 359.388 54.7738 358.965 53.2505Z" fill="#34BDB8"/>
<path d="M278.878 95.4856L278.375 93.6797L277.873 95.4856C277.45 97.0089 276.445 98.2926 275.084 99.0515C276.445 99.8117 277.45 101.097 277.873 102.619L278.375 104.425L278.878 102.619C279.301 101.097 280.305 99.8117 281.666 99.0515C280.305 98.2926 279.301 97.0089 278.878 95.4856Z" fill="#34BDB8"/>
<path d="M266.644 197.802L265.683 194.345L264.722 197.802C263.911 200.717 261.988 203.177 259.382 204.631C261.988 206.084 263.911 208.543 264.722 211.459L265.683 214.915L266.644 211.459C267.454 208.543 269.378 206.084 271.984 204.631C269.378 203.177 267.454 200.717 266.644 197.802Z" fill="#34BDB8"/>
<path d="M120.626 51.5571L119.665 48.0999L118.704 51.5571C117.893 54.4714 115.97 56.9303 113.364 58.384C115.97 59.8376 117.893 62.298 118.704 65.2137L119.665 68.6709L120.626 65.2137C121.437 62.298 123.361 59.8376 125.966 58.384C123.361 56.9303 121.437 54.4714 120.626 51.5571Z" fill="#34BDB8"/>
<path d="M150.038 313.066L149.077 309.61L148.116 313.066C147.305 315.981 145.381 318.442 142.776 319.895C145.381 321.349 147.305 323.808 148.116 326.723L149.077 330.181L150.038 326.723C150.848 323.808 152.772 321.349 155.378 319.895C152.772 318.442 150.848 315.981 150.038 313.066Z" fill="#34BDB8"/>
<path d="M278.95 179.895L278.375 177.83L277.8 179.895C277.317 181.637 276.168 183.107 274.61 183.976C276.168 184.845 277.317 186.314 277.8 188.056L278.375 190.122L278.95 188.056C279.434 186.314 280.584 184.845 282.141 183.976C280.584 183.107 279.434 181.637 278.95 179.895Z" fill="#34BDB8"/>
<path d="M134.57 39.0036L133.996 36.9373L133.421 39.0036C132.938 40.7441 131.788 42.2144 130.231 43.0832C131.788 43.9521 132.938 45.4225 133.421 47.1643L133.996 49.2306L134.57 47.1643C135.055 45.4225 136.204 43.9521 137.762 43.0832C136.204 42.2144 135.055 40.7441 134.57 39.0036Z" fill="#34BDB8"/>
<path d="M287.961 309.615L287.458 307.808L286.956 309.615C286.533 311.137 285.528 312.422 284.167 313.181C285.528 313.94 286.533 315.225 286.956 316.747L287.458 318.553L287.961 316.747C288.384 315.225 289.388 313.94 290.749 313.181C289.388 312.422 288.384 311.137 287.961 309.615Z" fill="#FEFEFE"/>
<path d="M495.241 275.142L494.74 273.336L494.238 275.142C493.815 276.664 492.81 277.949 491.449 278.71C492.81 279.468 493.815 280.752 494.238 282.274L494.74 284.081L495.241 282.274C495.666 280.752 496.669 279.468 498.03 278.71C496.669 277.949 495.666 276.664 495.241 275.142Z" fill="#FEFEFE"/>
<path d="M357.832 126.931L357.329 125.125L356.828 126.931C356.404 128.454 355.399 129.738 354.038 130.497C355.399 131.257 356.404 132.542 356.828 134.064L357.329 135.87L357.832 134.064C358.254 132.542 359.26 131.257 360.621 130.497C359.26 129.738 358.254 128.454 357.832 126.931Z" fill="#FEFEFE"/>
<path d="M34.5207 28.0468H32.7721L31.2241 30.9805L29.6379 28.0468H27.8893L30.3546 32.7447V34.8792H32.1032V32.696L34.5207 28.0468ZM38.295 27.998C36.2215 27.998 34.6736 29.4698 34.6736 31.4581C34.6736 33.4562 36.2215 34.9572 38.295 34.9572C40.3685 34.9572 41.9165 33.4562 41.9165 31.4581C41.9165 29.4795 40.3685 27.998 38.295 27.998ZM38.3141 29.5185C39.3174 29.5185 40.1201 30.3568 40.1201 31.4679C40.1201 32.579 39.3174 33.4367 38.3141 33.4367C37.3204 33.4367 36.47 32.579 36.47 31.4679C36.47 30.3568 37.3108 29.5185 38.3141 29.5185ZM44.4186 32.0137V28.0468H42.67V32.0137C42.67 33.8168 43.8835 34.9572 45.7755 34.9572C47.6579 34.9572 48.8427 33.8168 48.8427 32.0137V28.0468H47.0941V32.0137C47.0941 32.9006 46.559 33.4367 45.785 33.4367C44.9919 33.4367 44.4186 32.8909 44.4186 32.0137ZM56.0297 34.8792L54.6346 32.6472C55.4086 32.2379 55.829 31.4776 55.829 30.4445C55.829 28.924 54.8162 28.0468 53.0389 28.0468H50.029V34.8792H51.7776V32.9884H53.0389H53.0771L54.0517 34.8792H56.0297ZM51.7776 29.4698H53.0484C53.7555 29.4698 54.1664 29.8304 54.1664 30.503C54.1664 31.195 53.7555 31.5654 53.0484 31.5654H51.7776V29.4698ZM56.9456 28.0468V34.8792H58.5796V30.7856L61.6182 34.8792H63.147V28.0468H61.5226V32.1599L58.4841 28.0468H56.9456ZM69.3771 34.8792H71.2404L68.4311 28.0468H66.6347L63.7586 34.8792H65.555L66.0232 33.6706H68.9185L69.3771 34.8792ZM66.5487 32.3061L67.4852 29.8694L68.4025 32.3061H66.5487ZM71.8438 28.0468V34.8792H73.4013V30.5517L74.9588 34.197H76.1054L77.6629 30.5517L77.6725 34.8792H79.2205V28.0468H77.3094L75.5321 32.0332L73.7548 28.0468H71.8438ZM80.5186 28.0468V34.8792H85.8983V33.4562H82.2673V32.1696L85.4587 32.1599V30.7466H82.2673V29.4698H85.8027V28.0468H80.5186Z" fill="#FEFEFE"/>
<path d="M61.9253 152.846L58.2437 146.957C60.2858 145.878 61.3956 143.871 61.3956 141.145C61.3956 137.133 58.7229 134.819 54.0339 134.819H46.0921V152.846H50.706V147.857H54.0339H54.135L56.7067 152.846H61.9253ZM50.706 138.573H54.0585C55.9245 138.573 57.0084 139.525 57.0084 141.299C57.0084 143.126 55.9245 144.102 54.0585 144.102H50.706V138.573ZM70.6739 138.779C66.1856 138.779 63.2357 141.608 63.2357 145.878C63.2357 150.172 66.1856 153.001 70.6739 153.001C75.1608 153.001 78.1366 150.172 78.1366 145.878C78.1366 141.608 75.1608 138.779 70.6739 138.779ZM70.6739 142.483C72.4389 142.483 73.6237 143.871 73.6237 145.929C73.6237 148.012 72.4389 149.4 70.6739 149.4C68.9334 149.4 67.7486 148.012 67.7486 145.929C67.7486 143.871 68.9334 142.483 70.6739 142.483ZM89.2289 143.999L92.4818 142.071C91.297 139.988 89.1279 138.779 86.3801 138.779C82.1443 138.779 79.3214 141.634 79.3214 145.954C79.3214 150.198 82.1198 153.001 86.3296 153.001C89.2289 153.001 91.4485 151.792 92.5323 149.658L89.2289 147.729C88.6747 148.808 87.7424 149.297 86.5562 149.297C84.9427 149.297 83.8343 147.961 83.8343 145.929C83.8343 143.923 84.9427 142.559 86.5562 142.559C87.7164 142.559 88.6242 143.1 89.2289 143.999ZM103.475 152.846H108.768L103.675 144.308L108.667 138.934H103.574L99.2129 143.64V133.765H94.726V152.846H99.2129V149.066L100.6 147.6L103.475 152.846Z" fill="#5E489A"/>
<path d="M115.853 138.779C111.591 138.779 108.742 141.633 108.742 145.954C108.742 150.198 111.49 153.001 115.954 153.001C118.474 153.001 120.517 152.126 121.903 150.532L119.559 148.14C118.651 149.066 117.517 149.555 116.356 149.555C114.818 149.555 113.684 148.68 113.255 147.111H122.735C123.037 142.046 120.617 138.779 115.853 138.779ZM113.154 144.669C113.457 143.075 114.415 141.994 115.877 141.994C117.39 141.994 118.399 143.075 118.399 144.669H113.154ZM133.071 148.886C132.416 149.169 131.836 149.349 131.382 149.349C130.601 149.375 130.146 148.911 130.146 147.882V142.637H133.676V139.602H130.146V135.745H125.684V139.602H123.793V142.637H125.684V148.604C125.684 151.483 127.6 153.077 130.247 153.052C131.584 153.052 132.946 152.718 133.929 152.126L133.071 148.886ZM159.291 134.819H154.677L150.593 142.559L146.408 134.819H141.794L148.299 147.214V152.846H152.912V147.086L159.291 134.819ZM165.62 138.779C161.131 138.779 158.181 141.608 158.181 145.877C158.181 150.172 161.131 153.001 165.62 153.001C170.108 153.001 173.082 150.172 173.082 145.877C173.082 141.608 170.108 138.779 165.62 138.779ZM165.62 142.483C167.385 142.483 168.569 143.871 168.569 145.929C168.569 148.012 167.385 149.4 165.62 149.4C163.881 149.4 162.696 148.012 162.696 145.929C162.696 143.871 163.881 142.483 165.62 142.483ZM184.201 138.934V145.799C184.201 147.626 183.242 148.911 181.653 148.938C180.317 148.938 179.46 147.985 179.46 146.418V138.934H174.973V147.729C174.973 150.969 176.889 153.052 179.838 153.052C181.78 153.026 183.267 152.203 184.201 150.584V152.846H188.688V138.934H184.201ZM196.605 141.248V138.934H192.117V152.846H196.605V145.748C196.831 143.819 198.495 142.689 200.991 142.945V138.754C199.076 138.754 197.537 139.653 196.605 141.248Z" fill="#5E489A"/>
<path d="M75.9293 165.68H67.5342V183.707H76.2569C80.4175 183.707 83.0644 181.779 83.0644 178.692C83.0644 176.378 81.6775 174.604 79.4347 174.14C81.2994 173.626 82.4842 172.109 82.4842 170.232C82.4842 167.454 79.9384 165.68 75.9293 165.68ZM75.6781 172.855H72.1481V169.357H75.6781C76.964 169.332 77.7448 169.974 77.7448 171.055C77.7448 172.187 76.964 172.855 75.6781 172.855ZM75.6781 180.055H72.1481V176.275H75.6781C77.2916 176.25 78.299 176.969 78.299 178.101C78.299 179.335 77.2916 180.055 75.6781 180.055ZM94.4093 169.795V176.66C94.4093 178.487 93.4524 179.772 91.8635 179.799C90.5271 179.799 89.6698 178.846 89.6698 177.279V169.795H85.1829V178.59C85.1829 181.83 87.0981 183.913 90.0479 183.913C91.989 183.887 93.4769 183.064 94.4093 181.445V183.707H98.8975V169.795H94.4093ZM111.427 174.192L112.94 171.209C111.225 170.155 109.234 169.588 107.267 169.588C104.066 169.588 101.67 171.183 101.67 174.089C101.67 178.898 108.704 177.947 108.704 179.85C108.704 180.416 108.099 180.698 107.267 180.698C105.754 180.698 103.989 180.081 102.426 178.976L101.015 181.933C102.679 183.245 104.872 183.913 107.166 183.913C110.494 183.913 112.94 182.293 112.94 179.438C112.964 174.604 105.805 175.478 105.805 173.651C105.805 173.061 106.334 172.777 107.091 172.777C108.2 172.777 109.737 173.292 111.427 174.192ZM117.604 163.777C116.419 163.777 115.562 164.651 115.562 165.886C115.562 167.095 116.419 167.969 117.604 167.969C118.789 167.969 119.646 167.095 119.646 165.886C119.646 164.651 118.789 163.777 117.604 163.777ZM115.36 169.795V183.707H119.822V169.795H115.36ZM132.251 169.615C130.259 169.615 128.696 170.463 127.738 172.057V169.795H123.251V183.707H127.738V176.353C127.916 174.783 128.899 173.729 130.411 173.703C131.822 173.703 132.73 174.68 132.73 176.25V183.707H137.193V174.938C137.193 171.671 135.227 169.615 132.251 169.615ZM146.244 169.64C141.982 169.64 139.134 172.494 139.134 176.815C139.134 181.059 141.883 183.862 146.345 183.862C148.866 183.862 150.909 182.987 152.294 181.393L149.95 179.001C149.042 179.927 147.908 180.416 146.748 180.416C145.211 180.416 144.075 179.541 143.646 177.972H153.127C153.43 172.906 151.008 169.64 146.244 169.64ZM143.547 175.53C143.848 173.935 144.807 172.855 146.269 172.855C147.781 172.855 148.79 173.935 148.79 175.53H143.547ZM164.548 174.192L166.061 171.209C164.346 170.155 162.354 169.588 160.387 169.588C157.186 169.588 154.791 171.183 154.791 174.089C154.791 178.898 161.825 177.947 161.825 179.85C161.825 180.416 161.22 180.698 160.387 180.698C158.875 180.698 157.11 180.081 155.547 178.976L154.135 181.933C155.799 183.245 157.993 183.913 160.286 183.913C163.614 183.913 166.061 182.293 166.061 179.438C166.085 174.604 158.925 175.478 158.925 173.651C158.925 173.061 159.455 172.777 160.211 172.777C161.321 172.777 162.858 173.292 164.548 174.192ZM177.581 174.192L179.094 171.209C177.379 170.155 175.388 169.588 173.422 169.588C170.22 169.588 167.824 171.183 167.824 174.089C167.824 178.898 174.858 177.947 174.858 179.85C174.858 180.416 174.254 180.698 173.422 180.698C171.908 180.698 170.145 180.081 168.58 178.976L167.169 181.933C168.833 183.245 171.027 183.913 173.321 183.913C176.649 183.913 179.094 182.293 179.094 179.438C179.12 174.604 171.959 175.478 171.959 173.651C171.959 173.061 172.489 172.777 173.245 172.777C174.355 172.777 175.893 173.292 177.581 174.192Z" fill="#5E489A"/>
<path d="M152.702 274.517H92.9173C85.8272 274.517 80.0776 269.095 80.0776 262.409C80.0776 255.72 85.8272 250.298 92.9173 250.298H152.702C159.794 250.298 165.542 255.72 165.542 262.409C165.542 269.095 159.794 274.517 152.702 274.517Z" fill="#34BDB8"/>
<path d="M102.505 257.405V267.165H104.73V260.983L106.955 266.191H108.594L110.819 260.983L110.832 267.165H113.044V257.405H110.313L107.774 263.1L105.235 257.405H102.505ZM119.459 257.335C116.497 257.335 114.286 259.438 114.286 262.278C114.286 265.132 116.497 267.277 119.459 267.277C122.421 267.277 124.633 265.132 124.633 262.278C124.633 259.451 122.421 257.335 119.459 257.335ZM119.487 259.507C120.92 259.507 122.066 260.705 122.066 262.292C122.066 263.879 120.92 265.105 119.487 265.105C118.067 265.105 116.852 263.879 116.852 262.292C116.852 260.705 118.053 259.507 119.487 259.507ZM134.447 267.165L132.454 263.977C133.56 263.392 134.161 262.306 134.161 260.83C134.161 258.658 132.714 257.405 130.175 257.405H125.875V267.165H128.373V264.464H130.175H130.229L131.622 267.165H134.447ZM128.373 259.438H130.189C131.199 259.438 131.786 259.953 131.786 260.914C131.786 261.902 131.199 262.431 130.189 262.431H128.373V259.438ZM135.758 257.405V267.165H143.443V265.132H138.256V263.294L142.815 263.281V261.262H138.256V259.438H143.307V257.405H135.758Z" fill="#FEFEFE"/>
<path d="M46.9206 204.103V199.975H46.1153V204.848H48.9887V204.103H46.9206ZM51.6096 201.116C50.4834 201.116 49.7122 201.875 49.7122 202.996C49.7122 204.11 50.4834 204.876 51.6096 204.876C52.7289 204.876 53.5002 204.11 53.5002 202.996C53.5002 201.875 52.7289 201.116 51.6096 201.116ZM51.6096 201.806C52.258 201.806 52.7153 202.293 52.7153 203.003C52.7153 203.72 52.258 204.207 51.6096 204.207C50.9543 204.207 50.4971 203.72 50.4971 203.003C50.4971 202.293 50.9543 201.806 51.6096 201.806ZM55.4454 201.144H54.6604V204.848H55.4454V202.913C55.5068 202.279 55.9709 201.84 56.7012 201.882V201.116C56.1279 201.116 55.6911 201.381 55.4454 201.882V201.144ZM59.1856 201.116C58.1072 201.123 57.3496 201.882 57.3496 203.003C57.3496 204.117 58.0867 204.876 59.206 204.876C59.834 204.876 60.3527 204.646 60.7076 204.249L60.2913 203.797C60.0251 204.075 59.6633 204.228 59.2675 204.228C58.6942 204.228 58.2642 203.873 58.1413 203.302H60.8851C60.9806 201.966 60.4619 201.116 59.1856 201.116ZM58.1277 202.718C58.2164 202.126 58.6191 201.757 59.1924 201.757C59.7862 201.757 60.1752 202.119 60.2025 202.718H58.1277ZM66.7821 201.116C66.12 201.116 65.6354 201.388 65.4034 202.007C65.2327 201.444 64.7891 201.116 64.1407 201.116C63.5401 201.116 63.076 201.339 62.8234 201.861V201.144H62.0453V204.848H62.8234V203.017C62.8234 202.369 63.2056 201.882 63.8336 201.861C64.3659 201.861 64.6867 202.202 64.6867 202.766V204.848H65.4716V203.017C65.4716 202.369 65.847 201.882 66.4681 201.861C67.0005 201.861 67.3281 202.202 67.3281 202.766V204.848H68.113V202.544C68.113 201.659 67.6147 201.116 66.7821 201.116ZM71.9965 199.599C71.7372 199.599 71.5392 199.801 71.5392 200.086C71.5392 200.364 71.7372 200.566 71.9965 200.566C72.2559 200.566 72.4538 200.364 72.4538 200.086C72.4538 199.801 72.2559 199.599 71.9965 199.599ZM72.3856 204.848V201.144H71.6075V204.848H72.3856ZM75.9756 201.116C75.4091 201.116 74.9723 201.353 74.7061 201.785V201.144H73.9212V206.199H74.7061V204.207C74.9723 204.639 75.4091 204.876 75.9893 204.876C77.0267 204.876 77.7092 204.117 77.7092 203.01C77.7092 201.882 77.0063 201.116 75.9756 201.116ZM75.8118 204.193C75.1634 204.193 74.7061 203.699 74.7061 202.982C74.7061 202.286 75.1634 201.785 75.8118 201.785C76.4602 201.785 76.9175 202.293 76.9175 202.982C76.9175 203.692 76.4602 204.193 75.8118 204.193ZM79.9548 201.109C79.2586 201.109 78.617 201.43 78.617 202.182C78.6102 203.518 80.5212 203.094 80.5212 203.852C80.5212 204.131 80.2619 204.249 79.9274 204.249C79.5316 204.249 79.0265 204.075 78.7126 203.79L78.4327 204.361C78.7945 204.695 79.3609 204.876 79.8933 204.876C80.6236 204.876 81.2857 204.535 81.2857 203.776C81.2925 202.432 79.361 202.801 79.361 202.119C79.361 201.854 79.5862 201.75 79.8933 201.75C80.2141 201.75 80.6168 201.875 80.9376 202.077L81.2242 201.485C80.8966 201.249 80.412 201.109 79.9548 201.109ZM85.7152 201.144H84.9303V202.968C84.9303 203.616 84.5618 204.11 83.9338 204.124C83.4083 204.124 83.0875 203.783 83.0875 203.226V201.144H82.3026V203.449C82.3026 204.333 82.8009 204.876 83.6335 204.876C84.2273 204.869 84.6846 204.639 84.9303 204.124V204.848H85.7152V201.144ZM91.9535 201.116C91.2914 201.116 90.8069 201.388 90.5748 202.007C90.4042 201.444 89.9605 201.116 89.3121 201.116C88.7115 201.116 88.2474 201.339 87.9949 201.861V201.144H87.2168V204.848H87.9949V203.017C87.9949 202.369 88.3771 201.882 89.005 201.861C89.5374 201.861 89.8582 202.202 89.8582 202.766V204.848H90.6431V203.017C90.6431 202.369 91.0184 201.882 91.6395 201.861C92.1719 201.861 92.4995 202.202 92.4995 202.766V204.848H93.2844V202.544C93.2844 201.659 92.7862 201.116 91.9535 201.116ZM100.239 199.682H99.4544V201.785C99.1882 201.353 98.7514 201.109 98.1645 201.109C97.1407 201.109 96.4377 201.868 96.4377 202.982C96.4377 204.11 97.1339 204.883 98.1781 204.883C98.7583 204.883 99.1951 204.646 99.4544 204.214V204.848H100.239V199.682ZM98.3419 204.214C97.6799 204.214 97.2294 203.713 97.2226 203.01C97.2294 202.3 97.6867 201.792 98.3419 201.792C98.9971 201.792 99.4544 202.293 99.4544 203.01C99.4544 203.713 98.9971 204.214 98.3419 204.214ZM103.331 201.116C102.205 201.116 101.434 201.875 101.434 202.996C101.434 204.11 102.205 204.876 103.331 204.876C104.45 204.876 105.222 204.11 105.222 202.996C105.222 201.875 104.45 201.116 103.331 201.116ZM103.331 201.806C103.98 201.806 104.437 202.293 104.437 203.003C104.437 203.72 103.98 204.207 103.331 204.207C102.676 204.207 102.219 203.72 102.219 203.003C102.219 202.293 102.676 201.806 103.331 201.806ZM107.201 204.848V199.682H106.416V204.848H107.201ZM110.293 201.116C109.167 201.116 108.395 201.875 108.395 202.996C108.395 204.11 109.167 204.876 110.293 204.876C111.412 204.876 112.183 204.11 112.183 202.996C112.183 201.875 111.412 201.116 110.293 201.116ZM110.293 201.806C110.941 201.806 111.399 202.293 111.399 203.003C111.399 203.72 110.941 204.207 110.293 204.207C109.638 204.207 109.18 203.72 109.18 203.003C109.18 202.293 109.638 201.806 110.293 201.806ZM114.129 201.144H113.344V204.848H114.129V202.913C114.19 202.279 114.654 201.84 115.385 201.882V201.116C114.811 201.116 114.374 201.381 114.129 201.882V201.144ZM119.562 201.109C118.865 201.109 118.224 201.43 118.224 202.182C118.217 203.518 120.128 203.094 120.128 203.852C120.128 204.131 119.869 204.249 119.534 204.249C119.138 204.249 118.633 204.075 118.319 203.79L118.04 204.361C118.401 204.695 118.968 204.876 119.5 204.876C120.23 204.876 120.892 204.535 120.892 203.776C120.899 202.432 118.968 202.801 118.968 202.119C118.968 201.854 119.193 201.75 119.5 201.75C119.821 201.75 120.224 201.875 120.544 202.077L120.831 201.485C120.503 201.249 120.019 201.109 119.562 201.109ZM122.416 199.599C122.157 199.599 121.959 199.801 121.959 200.086C121.959 200.364 122.157 200.566 122.416 200.566C122.675 200.566 122.873 200.364 122.873 200.086C122.873 199.801 122.675 199.599 122.416 199.599ZM122.805 204.848V201.144H122.027V204.848H122.805ZM126.162 203.999C125.95 204.103 125.779 204.159 125.616 204.159C125.37 204.159 125.226 204.04 125.226 203.657V201.882H126.298V201.283H125.226V200.267H124.448V201.283H123.937V201.882H124.448V203.804C124.448 204.562 124.919 204.883 125.465 204.883C125.773 204.883 126.073 204.785 126.359 204.611L126.162 203.999ZM131.705 204.848H132.476L132.469 202.418C132.463 201.604 131.937 201.116 131.002 201.116C130.313 201.116 129.944 201.276 129.439 201.583L129.76 202.14C130.122 201.889 130.483 201.764 130.831 201.764C131.405 201.764 131.698 202.042 131.698 202.509V202.62H130.599C129.726 202.627 129.227 203.059 129.227 203.734C129.227 204.388 129.719 204.883 130.504 204.883C131.029 204.883 131.446 204.723 131.705 204.395V204.848ZM130.668 204.249C130.231 204.249 129.965 204.033 129.965 203.699C129.965 203.344 130.203 203.205 130.715 203.205H131.698V203.546C131.657 203.95 131.227 204.249 130.668 204.249ZM138.605 201.116C137.943 201.116 137.459 201.388 137.227 202.007C137.056 201.444 136.612 201.116 135.964 201.116C135.363 201.116 134.899 201.339 134.647 201.861V201.144H133.869V204.848H134.647V203.017C134.647 202.369 135.029 201.882 135.657 201.861C136.189 201.861 136.51 202.202 136.51 202.766V204.848H137.295V203.017C137.295 202.369 137.67 201.882 138.291 201.861C138.824 201.861 139.151 202.202 139.151 202.766V204.848H139.936V202.544C139.936 201.659 139.438 201.116 138.605 201.116ZM142.823 201.116C141.745 201.123 140.987 201.882 140.987 203.003C140.987 204.117 141.724 204.876 142.844 204.876C143.472 204.876 143.99 204.646 144.345 204.249L143.929 203.797C143.663 204.075 143.301 204.228 142.905 204.228C142.332 204.228 141.902 203.873 141.779 203.302H144.523C144.618 201.966 144.1 201.116 142.823 201.116ZM141.765 202.718C141.854 202.126 142.257 201.757 142.83 201.757C143.424 201.757 143.813 202.119 143.84 202.718H141.765ZM147.54 203.999C147.328 204.103 147.157 204.159 146.994 204.159C146.748 204.159 146.604 204.04 146.604 203.657V201.882H147.676V201.283H146.604V200.267H145.826V201.283H145.315V201.882H145.826V203.804C145.826 204.562 146.297 204.883 146.843 204.883C147.15 204.883 147.451 204.785 147.737 204.611L147.54 203.999ZM148.966 204.006C148.72 204.006 148.543 204.194 148.543 204.451C148.543 204.597 148.604 204.73 148.727 204.813L148.468 205.419H148.87L149.259 204.82C149.335 204.709 149.382 204.59 149.382 204.451C149.382 204.173 149.184 204.006 148.966 204.006ZM154.194 201.116C153.116 201.116 152.365 201.882 152.365 203.003C152.365 204.117 153.116 204.876 154.194 204.876C154.883 204.876 155.409 204.625 155.737 204.187L155.3 203.741C155.054 204.033 154.686 204.187 154.228 204.187C153.6 204.187 153.15 203.706 153.15 203.003C153.15 202.3 153.6 201.819 154.228 201.819C154.665 201.813 155.013 201.973 155.266 202.237L155.696 201.722C155.361 201.332 154.849 201.116 154.194 201.116ZM158.308 201.116C157.182 201.116 156.411 201.875 156.411 202.996C156.411 204.11 157.182 204.876 158.308 204.876C159.428 204.876 160.199 204.11 160.199 202.996C160.199 201.875 159.428 201.116 158.308 201.116ZM158.308 201.806C158.957 201.806 159.414 202.293 159.414 203.003C159.414 203.72 158.957 204.207 158.308 204.207C157.653 204.207 157.196 203.72 157.196 203.003C157.196 202.293 157.653 201.806 158.308 201.806ZM163.482 201.116C162.868 201.116 162.404 201.339 162.144 201.854V201.144H161.359V204.848H162.144V202.878C162.199 202.3 162.574 201.875 163.175 201.868C163.721 201.868 164.048 202.209 164.048 202.766V204.848H164.833V202.544C164.833 201.659 164.328 201.116 163.482 201.116ZM167.311 201.109C166.615 201.109 165.973 201.43 165.973 202.182C165.966 203.518 167.877 203.094 167.877 203.852C167.877 204.131 167.618 204.249 167.284 204.249C166.888 204.249 166.383 204.075 166.069 203.79L165.789 204.361C166.151 204.695 166.717 204.876 167.249 204.876C167.98 204.876 168.642 204.535 168.642 203.776C168.649 202.432 166.717 202.801 166.717 202.119C166.717 201.854 166.942 201.75 167.249 201.75C167.57 201.75 167.973 201.875 168.294 202.077L168.58 201.485C168.253 201.249 167.768 201.109 167.311 201.109ZM171.269 201.116C170.191 201.123 169.434 201.882 169.434 203.003C169.434 204.117 170.171 204.876 171.29 204.876C171.918 204.876 172.437 204.646 172.792 204.249L172.375 203.797C172.109 204.075 171.747 204.228 171.351 204.228C170.778 204.228 170.348 203.873 170.225 203.302H172.969C173.065 201.966 172.546 201.116 171.269 201.116ZM170.212 202.718C170.3 202.126 170.703 201.757 171.276 201.757C171.87 201.757 172.259 202.119 172.286 202.718H170.212ZM175.617 201.116C174.539 201.116 173.788 201.882 173.788 203.003C173.788 204.117 174.539 204.876 175.617 204.876C176.307 204.876 176.832 204.625 177.16 204.187L176.723 203.741C176.477 204.033 176.109 204.187 175.651 204.187C175.023 204.187 174.573 203.706 174.573 203.003C174.573 202.3 175.023 201.819 175.651 201.819C176.088 201.813 176.436 201.973 176.689 202.237L177.119 201.722C176.784 201.332 176.272 201.116 175.617 201.116ZM180.176 203.999C179.965 204.103 179.794 204.159 179.63 204.159C179.385 204.159 179.241 204.04 179.241 203.657V201.882H180.313V201.283H179.241V200.267H178.463V201.283H177.951V201.882H178.463V203.804C178.463 204.562 178.934 204.883 179.48 204.883C179.787 204.883 180.088 204.785 180.374 204.611L180.176 203.999ZM182.894 201.116C181.816 201.123 181.058 201.882 181.058 203.003C181.058 204.117 181.795 204.876 182.915 204.876C183.543 204.876 184.061 204.646 184.416 204.249L184 203.797C183.734 204.075 183.372 204.228 182.976 204.228C182.403 204.228 181.973 203.873 181.85 203.302H184.594C184.689 201.966 184.171 201.116 182.894 201.116ZM181.836 202.718C181.925 202.126 182.328 201.757 182.901 201.757C183.495 201.757 183.884 202.119 183.911 202.718H181.836ZM187.61 203.999C187.399 204.103 187.228 204.159 187.064 204.159C186.819 204.159 186.675 204.04 186.675 203.657V201.882H187.747V201.283H186.675V200.267H185.897V201.283H185.385V201.882H185.897V203.804C185.897 204.562 186.368 204.883 186.914 204.883C187.221 204.883 187.522 204.785 187.808 204.611L187.61 203.999ZM192.17 201.144H191.385V202.968C191.385 203.616 191.016 204.11 190.388 204.124C189.863 204.124 189.542 203.783 189.542 203.226V201.144H188.757V203.449C188.757 204.333 189.255 204.876 190.088 204.876C190.682 204.869 191.139 204.639 191.385 204.124V204.848H192.17V201.144ZM195.166 201.116C194.088 201.123 193.33 201.882 193.33 203.003C193.33 204.117 194.067 204.876 195.186 204.876C195.814 204.876 196.333 204.646 196.688 204.249L196.272 203.797C196.005 204.075 195.644 204.228 195.248 204.228C194.675 204.228 194.245 203.873 194.122 203.302H196.865C196.961 201.966 196.442 201.116 195.166 201.116ZM194.108 202.718C194.197 202.126 194.599 201.757 195.173 201.757C195.767 201.757 196.156 202.119 196.183 202.718H194.108ZM198.811 201.144H198.026V204.848H198.811V202.913C198.872 202.279 199.336 201.84 200.066 201.882V201.116C199.493 201.116 199.056 201.381 198.811 201.882V201.144Z" fill="#444445"/>
<path d="M50.8289 213.202H51.6001L51.5933 210.772C51.5865 209.958 51.0609 209.471 50.1259 209.471C49.4365 209.471 49.068 209.631 48.5629 209.937L48.8837 210.494C49.2454 210.243 49.6072 210.118 49.9552 210.118C50.5286 210.118 50.822 210.397 50.822 210.863V210.974H49.7232C48.8496 210.981 48.3513 211.413 48.3513 212.088C48.3513 212.743 48.8427 213.237 49.6276 213.237C50.1532 213.237 50.5695 213.077 50.8289 212.75V213.202ZM49.7914 212.603C49.3546 212.603 49.0884 212.388 49.0884 212.053C49.0884 211.698 49.3273 211.559 49.8392 211.559H50.822V211.9C50.7811 212.304 50.3511 212.603 49.7914 212.603ZM56.4529 208.036H55.668V210.139C55.4018 209.707 54.965 209.464 54.378 209.464C53.3542 209.464 52.6512 210.222 52.6512 211.336C52.6512 212.464 53.3474 213.237 54.3916 213.237C54.9718 213.237 55.4086 213 55.668 212.569V213.202H56.4529V208.036ZM54.5554 212.569C53.8934 212.569 53.4429 212.067 53.4361 211.364C53.4429 210.654 53.9002 210.146 54.5554 210.146C55.2107 210.146 55.668 210.647 55.668 211.364C55.668 212.067 55.2107 212.569 54.5554 212.569ZM58.3776 207.953C58.1182 207.953 57.9203 208.155 57.9203 208.44C57.9203 208.719 58.1182 208.921 58.3776 208.921C58.6369 208.921 58.8349 208.719 58.8349 208.44C58.8349 208.155 58.6369 207.953 58.3776 207.953ZM58.7666 213.202V209.498H57.9885V213.202H58.7666ZM62.3567 209.471C61.7902 209.471 61.3534 209.707 61.0872 210.139V209.498H60.3023V214.553H61.0872V212.562C61.3534 212.993 61.7902 213.23 62.3703 213.23C63.4078 213.23 64.0903 212.471 64.0903 211.364C64.0903 210.236 63.3873 209.471 62.3567 209.471ZM62.1929 212.548C61.5445 212.548 61.0872 212.053 61.0872 211.336C61.0872 210.64 61.5445 210.139 62.1929 210.139C62.8413 210.139 63.2986 210.647 63.2986 211.336C63.2986 212.046 62.8413 212.548 62.1929 212.548ZM65.6396 207.953C65.3803 207.953 65.1823 208.155 65.1823 208.44C65.1823 208.719 65.3803 208.921 65.6396 208.921C65.899 208.921 66.0969 208.719 66.0969 208.44C66.0969 208.155 65.899 207.953 65.6396 207.953ZM66.0287 213.202V209.498H65.2506V213.202H66.0287ZM68.6154 209.464C67.9192 209.464 67.2777 209.784 67.2777 210.536C67.2708 211.872 69.1819 211.448 69.1819 212.207C69.1819 212.485 68.9226 212.603 68.5881 212.603C68.1923 212.603 67.6872 212.429 67.3732 212.144L67.0934 212.715C67.4551 213.049 68.0216 213.23 68.554 213.23C69.2843 213.23 69.9463 212.889 69.9463 212.13C69.9532 210.786 68.0216 211.155 68.0216 210.473C68.0216 210.209 68.2469 210.104 68.554 210.104C68.8748 210.104 69.2775 210.229 69.5982 210.431L69.8849 209.84C69.5573 209.603 69.0727 209.464 68.6154 209.464ZM72.5672 209.471C71.4888 209.471 70.7381 210.236 70.7381 211.357C70.7381 212.471 71.4888 213.23 72.5672 213.23C73.2566 213.23 73.7821 212.979 74.1097 212.541L73.6729 212.095C73.4272 212.388 73.0586 212.541 72.6014 212.541C71.9734 212.541 71.523 212.06 71.523 211.357C71.523 210.654 71.9734 210.174 72.6014 210.174C73.0382 210.167 73.3862 210.327 73.6388 210.591L74.0688 210.076C73.7343 209.686 73.2224 209.471 72.5672 209.471ZM75.6591 207.953C75.3997 207.953 75.2018 208.155 75.2018 208.44C75.2018 208.719 75.3997 208.921 75.6591 208.921C75.9184 208.921 76.1163 208.719 76.1163 208.44C76.1163 208.155 75.9184 207.953 75.6591 207.953ZM76.0481 213.202V209.498H75.27V213.202H76.0481ZM79.6723 209.471C79.058 209.471 78.5939 209.693 78.3345 210.209V209.498H77.5496V213.202H78.3345V211.232C78.3891 210.654 78.7645 210.229 79.3651 210.222C79.9112 210.222 80.2388 210.564 80.2388 211.121V213.202H81.0237V210.898C81.0237 210.014 80.5186 209.471 79.6723 209.471ZM85.6908 209.498H84.9127V210.097C84.6602 209.693 84.2438 209.464 83.6842 209.471C82.7218 209.478 82.0734 210.188 82.0734 211.232C82.0734 212.297 82.7286 213.021 83.7115 213.021C84.2575 213.021 84.667 212.798 84.9127 212.395V212.861C84.9127 213.502 84.4622 213.912 83.7729 213.912C83.3292 213.912 82.9743 213.766 82.6331 213.508L82.2986 214.086C82.7423 214.393 83.2405 214.574 83.807 214.574C84.9468 214.574 85.6908 213.905 85.6908 212.84V209.498ZM83.8684 212.395C83.2405 212.395 82.8174 211.921 82.8105 211.253C82.8174 210.591 83.2473 210.118 83.8684 210.118C84.4827 210.118 84.9127 210.584 84.9127 211.253C84.9127 211.921 84.4827 212.395 83.8684 212.395ZM90.7223 209.471C89.6439 209.478 88.8863 210.236 88.8863 211.357C88.8863 212.471 89.6235 213.23 90.7428 213.23C91.3707 213.23 91.8895 213 92.2444 212.603L91.828 212.151C91.5618 212.429 91.2001 212.583 90.8042 212.583C90.2309 212.583 89.8009 212.228 89.6781 211.657H92.4218C92.5174 210.32 91.9986 209.471 90.7223 209.471ZM89.6644 211.072C89.7532 210.48 90.1558 210.111 90.7292 210.111C91.323 210.111 91.712 210.473 91.7393 211.072H89.6644ZM94.4011 213.202V208.036H93.6162V213.202H94.4011ZM96.3258 207.953C96.0665 207.953 95.8686 208.155 95.8686 208.44C95.8686 208.719 96.0665 208.921 96.3258 208.921C96.5852 208.921 96.7831 208.719 96.7831 208.44C96.7831 208.155 96.5852 207.953 96.3258 207.953ZM96.7149 213.202V209.498H95.9368V213.202H96.7149ZM100.073 212.353C99.8613 212.457 99.6907 212.513 99.5269 212.513C99.2812 212.513 99.1378 212.395 99.1378 212.012V210.236H100.209V209.638H99.1378V208.621H98.3598V209.638H97.8479V210.236H98.3598V212.158C98.3598 212.917 98.8307 213.237 99.3767 213.237C99.6839 213.237 99.9842 213.14 100.271 212.965L100.073 212.353ZM101.499 212.36C101.254 212.36 101.076 212.548 101.076 212.805C101.076 212.952 101.138 213.084 101.26 213.167L101.001 213.773H101.404L101.793 213.174C101.868 213.063 101.916 212.945 101.916 212.805C101.916 212.527 101.718 212.36 101.499 212.36ZM106.325 209.464C105.629 209.464 104.987 209.784 104.987 210.536C104.98 211.872 106.891 211.448 106.891 212.207C106.891 212.485 106.632 212.603 106.298 212.603C105.902 212.603 105.397 212.429 105.083 212.144L104.803 212.715C105.165 213.049 105.731 213.23 106.263 213.23C106.994 213.23 107.656 212.889 107.656 212.13C107.663 210.786 105.731 211.155 105.731 210.473C105.731 210.209 105.956 210.104 106.263 210.104C106.584 210.104 106.987 210.229 107.308 210.431L107.594 209.84C107.267 209.603 106.782 209.464 106.325 209.464ZM110.283 209.471C109.205 209.478 108.447 210.236 108.447 211.357C108.447 212.471 109.185 213.23 110.304 213.23C110.932 213.23 111.451 213 111.805 212.603L111.389 212.151C111.123 212.429 110.761 212.583 110.365 212.583C109.792 212.583 109.362 212.228 109.239 211.657H111.983C112.078 210.32 111.56 209.471 110.283 209.471ZM109.226 211.072C109.314 210.48 109.717 210.111 110.29 210.111C110.884 210.111 111.273 210.473 111.3 211.072H109.226ZM116.604 208.036H115.819V210.139C115.553 209.707 115.116 209.464 114.529 209.464C113.505 209.464 112.802 210.222 112.802 211.336C112.802 212.464 113.498 213.237 114.542 213.237C115.123 213.237 115.559 213 115.819 212.569V213.202H116.604V208.036ZM114.706 212.569C114.044 212.569 113.594 212.067 113.587 211.364C113.594 210.654 114.051 210.146 114.706 210.146C115.361 210.146 115.819 210.647 115.819 211.364C115.819 212.067 115.361 212.569 114.706 212.569ZM123.702 208.036H122.917V210.139C122.651 209.707 122.214 209.464 121.627 209.464C120.603 209.464 119.9 210.222 119.9 211.336C119.9 212.464 120.596 213.237 121.641 213.237C122.221 213.237 122.658 213 122.917 212.569V213.202H123.702V208.036ZM121.804 212.569C121.142 212.569 120.692 212.067 120.685 211.364C120.692 210.654 121.149 210.146 121.804 210.146C122.46 210.146 122.917 210.647 122.917 211.364C122.917 212.067 122.46 212.569 121.804 212.569ZM125.627 207.953C125.367 207.953 125.169 208.155 125.169 208.44C125.169 208.719 125.367 208.921 125.627 208.921C125.886 208.921 126.084 208.719 126.084 208.44C126.084 208.155 125.886 207.953 125.627 207.953ZM126.016 213.202V209.498H125.238V213.202H126.016ZM129.694 213.202H130.466L130.459 210.772C130.452 209.958 129.926 209.471 128.991 209.471C128.302 209.471 127.933 209.631 127.428 209.937L127.749 210.494C128.111 210.243 128.473 210.118 128.821 210.118C129.394 210.118 129.688 210.397 129.688 210.863V210.974H128.589C127.715 210.981 127.217 211.413 127.217 212.088C127.217 212.743 127.708 213.237 128.493 213.237C129.019 213.237 129.435 213.077 129.694 212.75V213.202ZM128.657 212.603C128.22 212.603 127.954 212.388 127.954 212.053C127.954 211.698 128.193 211.559 128.705 211.559H129.688V211.9C129.647 212.304 129.217 212.603 128.657 212.603ZM136.595 209.471C135.933 209.471 135.448 209.742 135.216 210.362C135.045 209.798 134.602 209.471 133.953 209.471C133.353 209.471 132.889 209.693 132.636 210.216V209.498H131.858V213.202H132.636V211.371C132.636 210.724 133.018 210.236 133.646 210.216C134.179 210.216 134.499 210.557 134.499 211.121V213.202H135.284V211.371C135.284 210.724 135.66 210.236 136.281 210.216C136.813 210.216 137.141 210.557 137.141 211.121V213.202H137.926V210.898C137.926 210.014 137.427 209.471 136.595 209.471ZM143.543 209.471C142.928 209.471 142.464 209.693 142.205 210.209V209.498H141.42V213.202H142.205V211.232C142.26 210.654 142.635 210.229 143.236 210.222C143.782 210.222 144.109 210.564 144.109 211.121V213.202H144.894V210.898C144.894 210.014 144.389 209.471 143.543 209.471ZM147.843 209.471C146.717 209.471 145.945 210.229 145.945 211.35C145.945 212.464 146.717 213.23 147.843 213.23C148.962 213.23 149.733 212.464 149.733 211.35C149.733 210.229 148.962 209.471 147.843 209.471ZM147.843 210.16C148.491 210.16 148.948 210.647 148.948 211.357C148.948 212.074 148.491 212.562 147.843 212.562C147.187 212.562 146.73 212.074 146.73 211.357C146.73 210.647 147.187 210.16 147.843 210.16ZM153.016 209.471C152.402 209.471 151.938 209.693 151.678 210.209V209.498H150.894V213.202H151.678V211.232C151.733 210.654 152.108 210.229 152.709 210.222C153.255 210.222 153.583 210.564 153.583 211.121V213.202H154.368V210.898C154.368 210.014 153.863 209.471 153.016 209.471ZM159.057 209.498H158.272V211.322C158.272 211.97 157.903 212.464 157.275 212.478C156.75 212.478 156.429 212.137 156.429 211.58V209.498H155.644V211.803C155.644 212.687 156.142 213.23 156.975 213.23C157.569 213.223 158.026 212.993 158.272 212.478V213.202H159.057V209.498ZM165.295 209.471C164.633 209.471 164.148 209.742 163.916 210.362C163.745 209.798 163.302 209.471 162.653 209.471C162.053 209.471 161.589 209.693 161.336 210.216V209.498H160.558V213.202H161.336V211.371C161.336 210.724 161.718 210.236 162.346 210.216C162.879 210.216 163.199 210.557 163.199 211.121V213.202H163.984V211.371C163.984 210.724 164.36 210.236 164.981 210.216C165.513 210.216 165.841 210.557 165.841 211.121V213.202H166.626V210.898C166.626 210.014 166.127 209.471 165.295 209.471ZM172.755 209.471C172.093 209.471 171.608 209.742 171.376 210.362C171.205 209.798 170.762 209.471 170.113 209.471C169.513 209.471 169.049 209.693 168.796 210.216V209.498H168.018V213.202H168.796V211.371C168.796 210.724 169.178 210.236 169.806 210.216C170.339 210.216 170.659 210.557 170.659 211.121V213.202H171.444V211.371C171.444 210.724 171.82 210.236 172.441 210.216C172.973 210.216 173.301 210.557 173.301 211.121V213.202H174.086V210.898C174.086 210.014 173.587 209.471 172.755 209.471ZM178.447 209.498H177.662L176.652 212.304L175.567 209.498H174.755L176.256 213.146L176.133 213.425C176.01 213.703 175.819 213.836 175.58 213.836C175.417 213.836 175.28 213.78 175.109 213.655L174.775 214.274C175.028 214.49 175.287 214.588 175.615 214.588C176.161 214.588 176.57 214.295 176.795 213.71L178.447 209.498ZM183.559 209.471C182.945 209.471 182.481 209.693 182.221 210.209V209.498H181.436V213.202H182.221V211.232C182.276 210.654 182.651 210.229 183.252 210.222C183.798 210.222 184.126 210.564 184.126 211.121V213.202H184.91V210.898C184.91 210.014 184.405 209.471 183.559 209.471ZM186.691 207.953C186.431 207.953 186.233 208.155 186.233 208.44C186.233 208.719 186.431 208.921 186.691 208.921C186.95 208.921 187.148 208.719 187.148 208.44C187.148 208.155 186.95 207.953 186.691 207.953ZM187.08 213.202V209.498H186.301V213.202H187.08ZM190.67 209.471C190.103 209.471 189.666 209.707 189.4 210.139V208.036H188.615V213.202H189.4V212.562C189.666 212.993 190.103 213.23 190.683 213.23C191.721 213.23 192.403 212.471 192.403 211.364C192.403 210.236 191.7 209.471 190.67 209.471ZM190.506 212.548C189.857 212.548 189.4 212.053 189.4 211.336C189.4 210.64 189.857 210.139 190.506 210.139C191.154 210.139 191.611 210.647 191.611 211.336C191.611 212.046 191.154 212.548 190.506 212.548ZM195.727 209.471C195.106 209.471 194.642 209.7 194.383 210.222V208.036H193.598V213.202H194.383V211.378C194.383 210.724 194.772 210.229 195.42 210.222C195.966 210.222 196.294 210.564 196.294 211.121V213.202H197.079V210.898C197.079 210.014 196.573 209.471 195.727 209.471Z" fill="#444445"/>
<path d="M58.5577 217.825C57.4793 217.832 56.7217 218.591 56.7217 219.712C56.7217 220.825 57.4588 221.584 58.5782 221.584C59.2061 221.584 59.7248 221.355 60.0797 220.958L59.6634 220.505C59.3972 220.784 59.0355 220.937 58.6396 220.937C58.0663 220.937 57.6363 220.582 57.5134 220.011H60.2572C60.3527 218.674 59.834 217.825 58.5577 217.825ZM57.4998 219.426C57.5885 218.834 57.9912 218.465 58.5645 218.465C59.1583 218.465 59.5474 218.827 59.5747 219.426H57.4998ZM64.7141 217.853H63.9291V219.677C63.9291 220.324 63.5606 220.818 62.9327 220.832C62.4071 220.832 62.0863 220.491 62.0863 219.934V217.853H61.3014V220.157C61.3014 221.041 61.7997 221.584 62.6324 221.584C63.2262 221.577 63.6834 221.348 63.9291 220.832V221.556H64.7141V217.853ZM66.6046 216.307C66.3453 216.307 66.1473 216.509 66.1473 216.794C66.1473 217.073 66.3453 217.275 66.6046 217.275C66.864 217.275 67.0619 217.073 67.0619 216.794C67.0619 216.509 66.864 216.307 66.6046 216.307ZM66.9937 221.556V217.853H66.2156V221.556H66.9937ZM69.5804 217.818C68.8843 217.818 68.2427 218.138 68.2427 218.89C68.2359 220.227 70.1469 219.802 70.1469 220.561C70.1469 220.839 69.8876 220.958 69.5531 220.958C69.1573 220.958 68.6522 220.784 68.3383 220.498L68.0584 221.069C68.4202 221.403 68.9866 221.584 69.519 221.584C70.2493 221.584 70.9114 221.243 70.9114 220.484C70.9182 219.141 68.9866 219.51 68.9866 218.827C68.9866 218.563 69.2119 218.458 69.519 218.458C69.8398 218.458 70.2425 218.584 70.5633 218.786L70.8499 218.194C70.5223 217.957 70.0377 217.818 69.5804 217.818ZM76.7811 217.825C76.119 217.825 75.6344 218.096 75.4024 218.716C75.2317 218.152 74.7881 217.825 74.1397 217.825C73.5391 217.825 73.075 218.048 72.8224 218.57V217.853H72.0443V221.556H72.8224V219.725C72.8224 219.078 73.2046 218.591 73.8326 218.57C74.3649 218.57 74.6857 218.911 74.6857 219.475V221.556H75.4706V219.725C75.4706 219.078 75.846 218.591 76.4671 218.57C76.9995 218.57 77.3271 218.911 77.3271 219.475V221.556H78.112V219.252C78.112 218.368 77.6137 217.825 76.7811 217.825ZM81.0605 217.825C79.9343 217.825 79.1631 218.584 79.1631 219.705C79.1631 220.818 79.9343 221.584 81.0605 221.584C82.1798 221.584 82.9511 220.818 82.9511 219.705C82.9511 218.584 82.1798 217.825 81.0605 217.825ZM81.0605 218.514C81.7089 218.514 82.1662 219.001 82.1662 219.712C82.1662 220.429 81.7089 220.916 81.0605 220.916C80.4053 220.916 79.948 220.429 79.948 219.712C79.948 219.001 80.4053 218.514 81.0605 218.514ZM87.5717 216.391H86.7868V218.493C86.5207 218.062 86.0838 217.818 85.4969 217.818C84.4731 217.818 83.7701 218.577 83.7701 219.691C83.7701 220.818 84.4663 221.591 85.5105 221.591C86.0907 221.591 86.5275 221.355 86.7868 220.923V221.556H87.5717V216.391ZM85.6743 220.923C85.0123 220.923 84.5618 220.422 84.555 219.718C84.5618 219.008 85.0191 218.5 85.6743 218.5C86.3295 218.5 86.7868 219.001 86.7868 219.718C86.7868 220.422 86.3295 220.923 85.6743 220.923ZM93.066 220.707C92.8545 220.812 92.6838 220.867 92.52 220.867C92.2743 220.867 92.131 220.749 92.131 220.366V218.591H93.2025V217.992H92.131V216.975H91.3529V217.992H90.841V218.591H91.3529V220.512C91.3529 221.271 91.8239 221.591 92.3699 221.591C92.677 221.591 92.9773 221.494 93.264 221.32L93.066 220.707ZM94.7191 216.307C94.4598 216.307 94.2618 216.509 94.2618 216.794C94.2618 217.073 94.4598 217.275 94.7191 217.275C94.9785 217.275 95.1764 217.073 95.1764 216.794C95.1764 216.509 94.9785 216.307 94.7191 216.307ZM95.1082 221.556V217.853H94.3301V221.556H95.1082ZM98.731 217.825C98.1167 217.825 97.6526 218.048 97.3932 218.563V217.853H96.6083V221.556H97.3932V219.586C97.4478 219.008 97.8232 218.584 98.4239 218.577C98.9699 218.577 99.2975 218.918 99.2975 219.475V221.556H100.082V219.252C100.082 218.368 99.5773 217.825 98.731 217.825ZM102.963 217.825C101.884 217.825 101.133 218.591 101.133 219.712C101.133 220.825 101.884 221.584 102.963 221.584C103.652 221.584 104.178 221.334 104.505 220.895L104.068 220.449C103.823 220.742 103.454 220.895 102.997 220.895C102.369 220.895 101.918 220.415 101.918 219.712C101.918 219.008 102.369 218.528 102.997 218.528C103.434 218.521 103.782 218.681 104.034 218.946L104.464 218.431C104.13 218.041 103.618 217.825 102.963 217.825ZM106.054 216.307C105.795 216.307 105.597 216.509 105.597 216.794C105.597 217.073 105.795 217.275 106.054 217.275C106.314 217.275 106.512 217.073 106.512 216.794C106.512 216.509 106.314 216.307 106.054 216.307ZM106.443 221.556V217.853H105.665V221.556H106.443ZM111.405 216.391H110.621V218.493C110.354 218.062 109.918 217.818 109.331 217.818C108.307 217.818 107.604 218.577 107.604 219.691C107.604 220.818 108.3 221.591 109.344 221.591C109.924 221.591 110.361 221.355 110.621 220.923V221.556H111.405V216.391ZM109.508 220.923C108.846 220.923 108.396 220.422 108.389 219.718C108.396 219.008 108.853 218.5 109.508 218.5C110.163 218.5 110.621 219.001 110.621 219.718C110.621 220.422 110.163 220.923 109.508 220.923ZM116.238 217.853H115.453V219.677C115.453 220.324 115.084 220.818 114.456 220.832C113.931 220.832 113.61 220.491 113.61 219.934V217.853H112.825V220.157C112.825 221.041 113.323 221.584 114.156 221.584C114.75 221.577 115.207 221.348 115.453 220.832V221.556H116.238V217.853ZM119.862 217.825C119.248 217.825 118.783 218.048 118.524 218.563V217.853H117.739V221.556H118.524V219.586C118.579 219.008 118.954 218.584 119.555 218.577C120.101 218.577 120.428 218.918 120.428 219.475V221.556H121.213V219.252C121.213 218.368 120.708 217.825 119.862 217.825ZM124.462 220.707C124.251 220.812 124.08 220.867 123.916 220.867C123.67 220.867 123.527 220.749 123.527 220.366V218.591H124.599V217.992H123.527V216.975H122.749V217.992H122.237V218.591H122.749V220.512C122.749 221.271 123.22 221.591 123.766 221.591C124.073 221.591 124.373 221.494 124.66 221.32L124.462 220.707ZM131.125 217.853H130.34V219.677C130.34 220.324 129.971 220.818 129.344 220.832C128.818 220.832 128.497 220.491 128.497 219.934V217.853H127.712V220.157C127.712 221.041 128.211 221.584 129.043 221.584C129.637 221.577 130.094 221.348 130.34 220.832V221.556H131.125V217.853ZM134.483 220.707C134.271 220.812 134.101 220.867 133.937 220.867C133.691 220.867 133.548 220.749 133.548 220.366V218.591H134.619V217.992H133.548V216.975H132.77V217.992H132.258V218.591H132.77V220.512C132.77 221.271 133.241 221.591 133.787 221.591C134.094 221.591 134.394 221.494 134.681 221.32L134.483 220.707ZM138.667 221.556V216.391H137.882V221.556H138.667ZM142.38 221.556H143.151L143.144 219.127C143.137 218.312 142.612 217.825 141.677 217.825C140.987 217.825 140.619 217.985 140.114 218.291L140.435 218.848C140.796 218.598 141.158 218.472 141.506 218.472C142.079 218.472 142.373 218.751 142.373 219.217V219.329H141.274C140.4 219.336 139.902 219.767 139.902 220.443C139.902 221.097 140.394 221.591 141.178 221.591C141.704 221.591 142.12 221.431 142.38 221.104V221.556ZM141.342 220.958C140.905 220.958 140.639 220.742 140.639 220.408C140.639 220.053 140.878 219.913 141.39 219.913H142.373V220.255C142.332 220.658 141.902 220.958 141.342 220.958ZM146.099 217.825C144.973 217.825 144.202 218.584 144.202 219.705C144.202 220.818 144.973 221.584 146.099 221.584C147.219 221.584 147.99 220.818 147.99 219.705C147.99 218.584 147.219 217.825 146.099 217.825ZM146.099 218.514C146.748 218.514 147.205 219.001 147.205 219.712C147.205 220.429 146.748 220.916 146.099 220.916C145.444 220.916 144.987 220.429 144.987 219.712C144.987 219.001 145.444 218.514 146.099 218.514ZM149.935 217.853H149.15V221.556H149.935V219.621C149.997 218.987 150.461 218.549 151.191 218.591V217.825C150.618 217.825 150.181 218.089 149.935 218.591V217.853ZM153.675 217.825C152.597 217.832 151.839 218.591 151.839 219.712C151.839 220.825 152.577 221.584 153.696 221.584C154.324 221.584 154.843 221.355 155.197 220.958L154.781 220.505C154.515 220.784 154.153 220.937 153.757 220.937C153.184 220.937 152.754 220.582 152.631 220.011H155.375C155.47 218.674 154.952 217.825 153.675 217.825ZM152.618 219.426C152.706 218.834 153.109 218.465 153.682 218.465C154.276 218.465 154.665 218.827 154.692 219.426H152.618ZM158.03 217.825C156.952 217.832 156.194 218.591 156.194 219.712C156.194 220.825 156.931 221.584 158.05 221.584C158.678 221.584 159.197 221.355 159.552 220.958L159.136 220.505C158.869 220.784 158.508 220.937 158.112 220.937C157.539 220.937 157.109 220.582 156.986 220.011H159.729C159.825 218.674 159.306 217.825 158.03 217.825ZM156.972 219.426C157.061 218.834 157.463 218.465 158.037 218.465C158.631 218.465 159.02 218.827 159.047 219.426H156.972ZM162.746 220.707C162.535 220.812 162.364 220.867 162.2 220.867C161.954 220.867 161.811 220.749 161.811 220.366V218.591H162.883V217.992H161.811V216.975H161.033V217.992H160.521V218.591H161.033V220.512C161.033 221.271 161.504 221.591 162.05 221.591C162.357 221.591 162.657 221.494 162.944 221.32L162.746 220.707ZM169.571 216.391H168.786V218.493C168.52 218.062 168.083 217.818 167.497 217.818C166.473 217.818 165.77 218.577 165.77 219.691C165.77 220.818 166.466 221.591 167.51 221.591C168.09 221.591 168.527 221.355 168.786 220.923V221.556H169.571V216.391ZM167.674 220.923C167.012 220.923 166.561 220.422 166.555 219.718C166.561 219.008 167.019 218.5 167.674 218.5C168.329 218.5 168.786 219.001 168.786 219.718C168.786 220.422 168.329 220.923 167.674 220.923ZM172.665 217.825C171.538 217.825 170.767 218.584 170.767 219.705C170.767 220.818 171.538 221.584 172.665 221.584C173.784 221.584 174.555 220.818 174.555 219.705C174.555 218.584 173.784 217.825 172.665 217.825ZM172.665 218.514C173.313 218.514 173.77 219.001 173.77 219.712C173.77 220.429 173.313 220.916 172.665 220.916C172.009 220.916 171.552 220.429 171.552 219.712C171.552 219.001 172.009 218.514 172.665 218.514ZM176.534 221.556V216.391H175.75V221.556H176.534ZM179.626 217.825C178.5 217.825 177.729 218.584 177.729 219.705C177.729 220.818 178.5 221.584 179.626 221.584C180.746 221.584 181.517 220.818 181.517 219.705C181.517 218.584 180.746 217.825 179.626 217.825ZM179.626 218.514C180.275 218.514 180.732 219.001 180.732 219.712C180.732 220.429 180.275 220.916 179.626 220.916C178.971 220.916 178.514 220.429 178.514 219.712C178.514 219.001 178.971 218.514 179.626 218.514ZM183.462 217.853H182.677V221.556H183.462V219.621C183.524 218.987 183.988 218.549 184.718 218.591V217.825C184.145 217.825 183.708 218.089 183.462 218.591V217.853ZM187.202 217.825C186.124 217.832 185.366 218.591 185.366 219.712C185.366 220.825 186.103 221.584 187.223 221.584C187.851 221.584 188.369 221.355 188.724 220.958L188.308 220.505C188.042 220.784 187.68 220.937 187.284 220.937C186.711 220.937 186.281 220.582 186.158 220.011H188.902C188.997 218.674 188.479 217.825 187.202 217.825ZM186.144 219.426C186.233 218.834 186.636 218.465 187.209 218.465C187.803 218.465 188.192 218.827 188.219 219.426H186.144Z" fill="#444445"/>
<path d="M73.1815 226.179C72.5194 226.179 72.0348 226.451 71.8028 227.07C71.6322 226.506 71.1885 226.179 70.5401 226.179C69.9395 226.179 69.4754 226.402 69.2228 226.924V226.207H68.4448V229.911H69.2228V228.08C69.2228 227.432 69.6051 226.945 70.233 226.924C70.7653 226.924 71.0861 227.265 71.0861 227.829V229.911H71.871V228.08C71.871 227.432 72.2464 226.945 72.8675 226.924C73.3999 226.924 73.7275 227.265 73.7275 227.829V229.911H74.5124V227.606C74.5124 226.722 74.0142 226.179 73.1815 226.179ZM78.0806 229.911H78.8519L78.8451 227.481C78.8382 226.666 78.3127 226.179 77.3776 226.179C76.6883 226.179 76.3197 226.339 75.8146 226.646L76.1354 227.202C76.4972 226.952 76.8589 226.827 77.207 226.827C77.7803 226.827 78.0738 227.105 78.0738 227.571V227.683H76.9749C76.1013 227.69 75.6031 228.121 75.6031 228.797C75.6031 229.451 76.0945 229.945 76.8794 229.945C77.4049 229.945 77.8213 229.785 78.0806 229.458V229.911ZM77.0432 229.312C76.6064 229.312 76.3402 229.096 76.3402 228.762C76.3402 228.407 76.5791 228.268 77.091 228.268H78.0738V228.609C78.0328 229.013 77.6029 229.312 77.0432 229.312ZM83.5217 226.207H82.7436V226.806C82.4911 226.402 82.0747 226.172 81.5151 226.179C80.5527 226.186 79.9043 226.896 79.9043 227.94C79.9043 229.006 80.5595 229.73 81.5424 229.73C82.0884 229.73 82.4979 229.507 82.7436 229.103V229.57C82.7436 230.21 82.2932 230.621 81.6038 230.621C81.1602 230.621 80.8053 230.475 80.464 230.217L80.1296 230.795C80.5732 231.101 81.0714 231.282 81.6379 231.282C82.7777 231.282 83.5217 230.614 83.5217 229.549V226.207ZM81.6994 229.103C81.0714 229.103 80.6483 228.63 80.6415 227.961C80.6483 227.3 81.0783 226.827 81.6994 226.827C82.3136 226.827 82.7436 227.293 82.7436 227.961C82.7436 228.63 82.3136 229.103 81.6994 229.103ZM87.0776 226.179C86.4634 226.179 85.9993 226.402 85.7399 226.917V226.207H84.955V229.911H85.7399V227.94C85.7945 227.363 86.1699 226.938 86.7705 226.931C87.3165 226.931 87.6441 227.272 87.6441 227.829V229.911H88.429V227.606C88.429 226.722 87.924 226.179 87.0776 226.179ZM91.9986 229.911H92.7699L92.7631 227.481C92.7562 226.666 92.2307 226.179 91.2956 226.179C90.6063 226.179 90.2377 226.339 89.7327 226.646L90.0534 227.202C90.4152 226.952 90.7769 226.827 91.125 226.827C91.6983 226.827 91.9918 227.105 91.9918 227.571V227.683H90.8929C90.0193 227.69 89.5211 228.121 89.5211 228.797C89.5211 229.451 90.0125 229.945 90.7974 229.945C91.3229 229.945 91.7393 229.785 91.9986 229.458V229.911ZM90.9612 229.312C90.5244 229.312 90.2582 229.096 90.2582 228.762C90.2582 228.407 90.4971 228.268 91.009 228.268H91.9918V228.609C91.9508 229.013 91.5209 229.312 90.9612 229.312ZM98.4417 229.911H99.2129L99.2061 227.481C99.1992 226.666 98.6737 226.179 97.7387 226.179C97.0493 226.179 96.6807 226.339 96.1757 226.646L96.4965 227.202C96.8582 226.952 97.2199 226.827 97.568 226.827C98.1413 226.827 98.4348 227.105 98.4348 227.571V227.683H97.336C96.4623 227.69 95.9641 228.121 95.9641 228.797C95.9641 229.451 96.4555 229.945 97.2404 229.945C97.7659 229.945 98.1823 229.785 98.4417 229.458V229.911ZM97.4042 229.312C96.9674 229.312 96.7012 229.096 96.7012 228.762C96.7012 228.407 96.9401 228.268 97.452 228.268H98.4348V228.609C98.3939 229.013 97.9639 229.312 97.4042 229.312ZM101.424 229.911V224.745H100.639V229.911H101.424ZM103.349 224.661C103.09 224.661 102.892 224.863 102.892 225.149C102.892 225.427 103.09 225.629 103.349 225.629C103.608 225.629 103.806 225.427 103.806 225.149C103.806 224.863 103.608 224.661 103.349 224.661ZM103.738 229.911V226.207H102.96V229.911H103.738ZM108.7 226.207H107.915V226.847C107.649 226.416 107.212 226.172 106.625 226.172C105.601 226.172 104.898 226.931 104.898 228.045C104.898 229.173 105.594 229.945 106.639 229.945C107.219 229.945 107.656 229.709 107.915 229.277V231.261H108.7V226.207ZM106.803 229.277C106.141 229.277 105.69 228.776 105.683 228.073C105.69 227.363 106.147 226.854 106.803 226.854C107.458 226.854 107.915 227.356 107.915 228.073C107.915 228.776 107.458 229.277 106.803 229.277ZM113.532 226.207H112.747V228.031C112.747 228.678 112.379 229.173 111.751 229.187C111.225 229.187 110.905 228.846 110.905 228.289V226.207H110.12V228.511C110.12 229.396 110.618 229.939 111.451 229.939C112.044 229.932 112.502 229.702 112.747 229.187V229.911H113.532V226.207ZM117.211 229.911H117.982L117.975 227.481C117.969 226.666 117.443 226.179 116.508 226.179C115.819 226.179 115.45 226.339 114.945 226.646L115.266 227.202C115.628 226.952 115.989 226.827 116.337 226.827C116.911 226.827 117.204 227.105 117.204 227.571V227.683H116.105C115.232 227.69 114.733 228.121 114.733 228.797C114.733 229.451 115.225 229.945 116.01 229.945C116.535 229.945 116.952 229.785 117.211 229.458V229.911ZM116.174 229.312C115.737 229.312 115.471 229.096 115.471 228.762C115.471 228.407 115.709 228.268 116.221 228.268H117.204V228.609C117.163 229.013 116.733 229.312 116.174 229.312ZM124.113 226.179C123.451 226.179 122.966 226.451 122.734 227.07C122.563 226.506 122.12 226.179 121.471 226.179C120.871 226.179 120.407 226.402 120.154 226.924V226.207H119.376V229.911H120.154V228.08C120.154 227.432 120.536 226.945 121.164 226.924C121.697 226.924 122.017 227.265 122.017 227.829V229.911H122.802V228.08C122.802 227.432 123.178 226.945 123.799 226.924C124.331 226.924 124.659 227.265 124.659 227.829V229.911H125.444V227.606C125.444 226.722 124.945 226.179 124.113 226.179ZM130.433 226.179C129.354 226.186 128.597 226.945 128.597 228.066C128.597 229.18 129.334 229.939 130.453 229.939C131.081 229.939 131.6 229.709 131.955 229.312L131.539 228.859C131.272 229.138 130.911 229.291 130.515 229.291C129.941 229.291 129.511 228.936 129.389 228.365H132.132C132.228 227.028 131.709 226.179 130.433 226.179ZM129.375 227.78C129.464 227.189 129.866 226.82 130.44 226.82C131.033 226.82 131.423 227.182 131.45 227.78H129.375ZM134.076 226.207H133.291V229.911H134.076V227.975C134.138 227.342 134.602 226.903 135.332 226.945V226.179C134.759 226.179 134.322 226.444 134.076 226.945V226.207ZM138.357 229.911H139.128L139.121 227.481C139.115 226.666 138.589 226.179 137.654 226.179C136.965 226.179 136.596 226.339 136.091 226.646L136.412 227.202C136.773 226.952 137.135 226.827 137.483 226.827C138.057 226.827 138.35 227.105 138.35 227.571V227.683H137.251C136.378 227.69 135.879 228.121 135.879 228.797C135.879 229.451 136.371 229.945 137.156 229.945C137.681 229.945 138.098 229.785 138.357 229.458V229.911ZM137.32 229.312C136.883 229.312 136.617 229.096 136.617 228.762C136.617 228.407 136.855 228.268 137.367 228.268H138.35V228.609C138.309 229.013 137.879 229.312 137.32 229.312ZM142.377 229.061C142.165 229.166 141.995 229.221 141.831 229.221C141.585 229.221 141.442 229.103 141.442 228.72V226.945H142.514V226.346H141.442V225.33H140.664V226.346H140.152V226.945H140.664V228.866C140.664 229.625 141.135 229.945 141.681 229.945C141.988 229.945 142.288 229.848 142.575 229.674L142.377 229.061ZM147.387 229.911L148.779 226.207H147.994L146.998 229.124L145.988 226.207H145.169L146.575 229.911H147.387ZM151.086 226.179C149.96 226.179 149.189 226.938 149.189 228.059C149.189 229.173 149.96 229.939 151.086 229.939C152.205 229.939 152.977 229.173 152.977 228.059C152.977 226.938 152.205 226.179 151.086 226.179ZM151.086 226.868C151.734 226.868 152.192 227.356 152.192 228.066C152.192 228.783 151.734 229.27 151.086 229.27C150.431 229.27 149.973 228.783 149.973 228.066C149.973 227.356 150.431 226.868 151.086 226.868ZM154.956 229.911V224.745H154.171V229.911H154.956ZM159.788 226.207H159.003V228.031C159.003 228.678 158.635 229.173 158.007 229.187C157.481 229.187 157.16 228.846 157.16 228.289V226.207H156.376V228.511C156.376 229.396 156.874 229.939 157.706 229.939C158.3 229.932 158.758 229.702 159.003 229.187V229.911H159.788V226.207ZM163.146 229.061C162.935 229.166 162.764 229.221 162.6 229.221C162.354 229.221 162.211 229.103 162.211 228.72V226.945H163.283V226.346H162.211V225.33H161.433V226.346H160.921V226.945H161.433V228.866C161.433 229.625 161.904 229.945 162.45 229.945C162.757 229.945 163.057 229.848 163.344 229.674L163.146 229.061ZM166.497 226.179C165.931 226.179 165.494 226.416 165.228 226.847V226.207H164.443V231.261H165.228V229.27C165.494 229.702 165.931 229.939 166.511 229.939C167.548 229.939 168.231 229.18 168.231 228.073C168.231 226.945 167.528 226.179 166.497 226.179ZM166.334 229.256C165.685 229.256 165.228 228.762 165.228 228.045C165.228 227.349 165.685 226.847 166.334 226.847C166.982 226.847 167.439 227.356 167.439 228.045C167.439 228.755 166.982 229.256 166.334 229.256ZM171.569 229.911H172.34L172.333 227.481C172.326 226.666 171.801 226.179 170.866 226.179C170.176 226.179 169.808 226.339 169.303 226.646L169.623 227.202C169.985 226.952 170.347 226.827 170.695 226.827C171.268 226.827 171.562 227.105 171.562 227.571V227.683H170.463C169.589 227.69 169.091 228.121 169.091 228.797C169.091 229.451 169.582 229.945 170.367 229.945C170.893 229.945 171.309 229.785 171.569 229.458V229.911ZM170.531 229.312C170.094 229.312 169.828 229.096 169.828 228.762C169.828 228.407 170.067 228.268 170.579 228.268H171.562V228.609C171.521 229.013 171.091 229.312 170.531 229.312ZM175.589 229.061C175.377 229.166 175.206 229.221 175.043 229.221C174.797 229.221 174.654 229.103 174.654 228.72V226.945H175.725V226.346H174.654V225.33H173.875V226.346H173.364V226.945H173.875V228.866C173.875 229.625 174.346 229.945 174.892 229.945C175.2 229.945 175.5 229.848 175.786 229.674L175.589 229.061ZM177.016 229.054C176.771 229.054 176.586 229.242 176.586 229.507C176.586 229.778 176.771 229.973 177.016 229.973C177.262 229.973 177.446 229.778 177.446 229.507C177.446 229.242 177.262 229.054 177.016 229.054Z" fill="#444445"/>
<path d="M294.137 34.974V28.1513H293.01V31.1143H289.465V28.1513H288.337V34.974H289.465V32.1475H293.01V34.974H294.137ZM298.886 28.1221C296.889 28.1221 295.341 29.6036 295.341 31.5627C295.341 33.512 296.889 35.0227 298.886 35.0227C300.883 35.0227 302.431 33.512 302.431 31.5627C302.431 29.6133 300.883 28.1221 298.886 28.1221ZM298.896 29.1552C300.205 29.1552 301.275 30.2079 301.275 31.5627C301.275 32.9175 300.205 33.9896 298.896 33.9896C297.587 33.9896 296.488 32.9175 296.488 31.5627C296.488 30.2079 297.577 29.1552 298.896 29.1552ZM310.706 34.974V28.1513H309.378L307.18 32.6835L304.973 28.1513H303.635V34.974H304.696V29.8765L306.808 34.2625H307.543L309.655 29.8765L309.665 34.974H310.706ZM317.252 29.1845V28.1513H312.474V34.974H317.366V33.9409H313.602V32.0597H316.869V31.0266H313.602V29.1845H317.252Z" fill="#5E489A"/>
<path d="M353.828 34.974V28.1513H352.701V34.974H353.828ZM357.784 28.1025C356.332 28.1025 355.347 28.8335 355.347 30.0031C355.347 32.4301 358.959 31.5821 358.959 33.1026C358.959 33.6289 358.491 33.931 357.708 33.931C356.991 33.931 356.131 33.5802 355.443 32.9369L354.956 33.931C355.644 34.5743 356.637 35.0129 357.688 35.0129C359.16 35.0129 360.211 34.2624 360.211 33.0441C360.221 30.5879 356.609 31.3872 356.609 29.8959C356.609 29.4378 357.039 29.1844 357.698 29.1844C358.204 29.1844 358.931 29.3696 359.657 29.818L360.125 28.8043C359.504 28.3852 358.653 28.1025 357.784 28.1025ZM363.727 28.1025C362.275 28.1025 361.291 28.8335 361.291 30.0031C361.291 32.4301 364.903 31.5821 364.903 33.1026C364.903 33.6289 364.434 33.931 363.651 33.931C362.934 33.931 362.074 33.5802 361.386 32.9369L360.899 33.931C361.587 34.5743 362.581 35.0129 363.632 35.0129C365.103 35.0129 366.154 34.2624 366.154 33.0441C366.164 30.5879 362.552 31.3872 362.552 29.8959C362.552 29.4378 362.982 29.1844 363.641 29.1844C364.148 29.1844 364.874 29.3696 365.6 29.818L366.068 28.8043C365.447 28.3852 364.597 28.1025 363.727 28.1025ZM373.158 28.1513H372.031V32.1474C372.031 33.3073 371.353 33.9895 370.263 33.9895C369.164 33.9895 368.467 33.2975 368.467 32.1474V28.1513H367.339V32.1474C367.339 33.9311 368.448 35.0227 370.254 35.0227C372.06 35.0227 373.158 33.9311 373.158 32.1474V28.1513Z" fill="#5E489A"/>
<path d="M379.551 29.1844V28.1513H374.773V34.974H379.666V33.9408H375.901V32.0597H379.169V31.0265H375.901V29.1844H379.551ZM383.239 28.1025C381.787 28.1025 380.803 28.8335 380.803 30.0031C380.803 32.4301 384.415 31.5821 384.415 33.1026C384.415 33.6289 383.947 33.931 383.163 33.931C382.446 33.931 381.586 33.5802 380.898 32.9369L380.411 33.931C381.099 34.5743 382.093 35.0129 383.144 35.0129C384.615 35.0129 385.666 34.2624 385.666 33.0441C385.676 30.5879 382.064 31.3872 382.064 29.8959C382.064 29.4378 382.494 29.1844 383.153 29.1844C383.66 29.1844 384.386 29.3696 385.112 29.818L385.58 28.8043C384.959 28.3852 384.109 28.1025 383.239 28.1025Z" fill="#5E489A"/>
<path d="M425.43 34.974V28.1513H424.303V34.974H425.43ZM432.988 34.974V28.1513H431.88V33.0539L428.297 28.1513H427.188V34.974H428.316V30.0812L431.88 34.974H432.988ZM439.238 29.1845L439.247 28.1513H434.756V34.974H435.884V32.1767H438.922V31.1533H435.884V29.1845H439.238ZM443.241 28.1221C441.244 28.1221 439.696 29.6036 439.696 31.5627C439.696 33.512 441.244 35.0227 443.241 35.0227C445.238 35.0227 446.786 33.512 446.786 31.5627C446.786 29.6133 445.238 28.1221 443.241 28.1221ZM443.251 29.1552C444.56 29.1552 445.63 30.2079 445.63 31.5627C445.63 32.9175 444.56 33.9896 443.251 33.9896C441.942 33.9896 440.843 32.9175 440.843 31.5627C440.843 30.2079 441.932 29.1552 443.251 29.1552Z" fill="#5E489A"/>
<path d="M482.526 28.1221C480.548 28.1221 479.01 29.6133 479.01 31.5529C479.01 33.512 480.529 35.0227 482.488 35.0227C483.434 35.0227 484.399 34.5841 485.077 33.9019L484.408 33.1416C483.902 33.6387 483.214 33.9506 482.545 33.9506C481.207 33.9506 480.156 32.8882 480.156 31.5432C480.156 30.1981 481.207 29.1455 482.545 29.1455C483.224 29.1455 483.921 29.4769 484.408 30.0129L485.068 29.1747C484.418 28.5217 483.472 28.1221 482.526 28.1221ZM489.071 28.1221C487.074 28.1221 485.526 29.6036 485.526 31.5627C485.526 33.512 487.074 35.0227 489.071 35.0227C491.068 35.0227 492.616 33.512 492.616 31.5627C492.616 29.6133 491.068 28.1221 489.071 28.1221ZM489.081 29.1552C490.39 29.1552 491.46 30.2079 491.46 31.5627C491.46 32.9175 490.39 33.9896 489.081 33.9896C487.772 33.9896 486.673 32.9175 486.673 31.5627C486.673 30.2079 487.762 29.1552 489.081 29.1552ZM499.62 34.974V28.1513H498.512V33.0539L494.929 28.1513H493.82V34.974H494.948V30.0812L498.512 34.974H499.62ZM505.956 29.1845V28.1513H500.595V29.1845H502.707V34.974H503.834V29.1845H505.956ZM510.58 33.434L511.221 34.974H512.425L509.501 28.1513H508.344L505.392 34.974H506.567L507.207 33.434H510.58ZM510.15 32.4106H507.628L508.889 29.3794L510.15 32.4106ZM516.103 28.1221C514.125 28.1221 512.587 29.6133 512.587 31.5529C512.587 33.512 514.106 35.0227 516.065 35.0227C517.011 35.0227 517.976 34.5841 518.655 33.9019L517.986 33.1416C517.479 33.6387 516.791 33.9506 516.122 33.9506C514.785 33.9506 513.734 32.8882 513.734 31.5432C513.734 30.1981 514.785 29.1455 516.122 29.1455C516.801 29.1455 517.498 29.4769 517.986 30.0129L518.645 29.1747C517.995 28.5217 517.049 28.1221 516.103 28.1221ZM524.369 29.1845V28.1513H519.008V29.1845H521.12V34.974H522.247V29.1845H524.369Z" fill="#FEFEFE"/>
</svg>
